Sinopse

No Alasca, em 1906, Jack tem que ficar na cidade, e seu cachorro Caninos Brancos vai com o jovem amigo Henry. Conhecem uma jovem índia e acabam se envolvendo com sua tribo e realizando uma antiga profecia indígena.


Format                         : Matroska
Format version                 : Version 4 / Version 2
File size                      : 678 MiB
Duration                       : 1h 46mn
Overall bit rate               : 893 Kbps
Encoded date                   : UTC 2013-06-14 09:20:32
Writing application            : mkvmerge v6.2.0 ('Promised Land') built on Apr 28 2013 12:22:01
Writing library                : libebml v1.3.0 + libmatroska v1.4.0

Video
ID                             : 1
Format                         : AVC
Format/Info                    : Advanced Video Codec
Format profile                 : High@L4.1
Format settings, CABAC         : Yes
Format settings, ReFrames      : 4 frames
Codec ID                       : V_MPEG4/ISO/AVC
Duration                       : 1h 46mn
Bit rate                       : 684 Kbps
Width                          : 720 pixels
Height                         : 384 pixels
Display aspect ratio           : 1.85:1
Frame rate mode                : Constant
Frame rate                     : 23.976 fps
Color space                    : YUV
Chroma subsampling             : 4:2:0
Bit depth                      : 8 bits
Scan type                      : Progressive
Bits/(Pixel*Frame)             : 0.103
Stream size                    : 519 MiB (77%)
Title                          : Caninos Brancos 2 - Zagor Lukas
Writing library                : x264 core 130 r2273 b3065e6
Encoding settings              : cabac=1 / ref=3 / deblock=1:0:0 / analyse=0x3:0x113 / me=hex / subme=7 / psy=1 / psy_rd=1.00:0.00 / mixed_ref=1 / me_range=16 / chroma_me=1 / trellis=1 / 8x8dct=1 / cqm=0 / deadzone=21,11 / fast_pskip=1 / chroma_qp_offset=-2 / threads=3 / lookahead_threads=1 / sliced_threads=0 / nr=0 / decimate=1 / interlaced=0 / bluray_compat=0 / constrained_intra=0 / bframes=3 / b_pyramid=2 / b_adapt=1 / b_bias=0 / direct=1 / weightb=1 / open_gop=0 / weightp=2 / keyint=240 / keyint_min=23 / scenecut=40 / intra_refresh=0 / rc_lookahead=40 / rc=crf / mbtree=1 / crf=23.0 / qcomp=0.60 / qpmin=0 / qpmax=69 / qpstep=4 / vbv_maxrate=62500 / vbv_bufsize=78125 / crf_max=0.0 / nal_hrd=none / ip_ratio=1.40 / aq=1:1.00
Language                       : Portuguese
Default                        : Yes
Forced                         : No

Audio
ID                             : 2
Format                         : AC-3
Format/Info                    : Audio Coding 3
Format profile                 : Dolby Digital
Mode extension                 : CM (complete main)
Format settings, Endianness    : Big
Codec ID                       : A_AC3
Duration                       : 1h 46mn
Bit rate mode                  : Constant
Bit rate                       : 192 Kbps
Channel(s)                     : 2 channels
Channel positions              : Front: L R
Sampling rate                  : 48.0 KHz
Bit depth                      : 16 bits
Compression mode               : Lossy
Stream size                    : 146 MiB (21%)
Title                          : por
Language                       : Portuguese
Default                        : Yes
Forced                         : No

Text #1
ID                             : 3
Format                         : VobSub
Muxing mode                    : zlib
Codec ID                       : S_VOBSUB
Codec ID/Info                  : The same subtitle format used on DVDs
Title                          : English - (Caption/Normal Size Char)
Language                       : English
Default                        : No
Forced                         : No

Text #2
ID                             : 4
Format                         : VobSub
Muxing mode                    : zlib
Codec ID                       : S_VOBSUB
Codec ID/Info                  : The same subtitle format used on DVDs
Title                          : Spanish - (Caption/Normal Size Char)
Language                       : Spanish
Default                        : No
Forced                         : No

Text #3
ID                             : 5
Format                         : VobSub
Muxing mode                    : zlib
Codec ID                       : S_VOBSUB
Codec ID/Info                  : The same subtitle format used on DVDs
Title                          : Portuguese - (Caption/Normal Size Char)
Language                       : Portuguese
Default                        : No
Forced                         : No

Text #4
ID                             : 6
Format                         : VobSub
Muxing mode                    : zlib
Codec ID                       : S_VOBSUB
Codec ID/Info                  : The same subtitle format used on DVDs
Title                          : Spanish - (Forced Caption)
Language                       : Spanish
Default                        : No
Forced                         : Yes

Text #5
ID                             : 7
Format                         : VobSub
Muxing mode                    : zlib
Codec ID                       : S_VOBSUB
Codec ID/Info                  : The same subtitle format used on DVDs
Title                          : Portuguese - (Forced Caption)
Language                       : Portuguese
Default                        : No
Forced                         : Yes

Text #6
ID                             : 8
Format                         : ASS
Codec ID                       : S_TEXT/ASS
Codec ID/Info                  : Advanced Sub Station Alpha
Compression mode               : Lossless
Title                          : Credito
Language                       : Portuguese
Default                        : Yes
Forced                         : No

Menu
00:00:00.000                   : en:Chapter 01
00:11:21.834                   : en:Chapter 02
00:21:20.334                   : en:Chapter 03
00:30:03.501                   : en:Chapter 04
00:41:37.668                   : en:Chapter 05
00:56:37.168                   : en:Chapter 06
01:07:57.502                   : en:Chapter 07
01:19:28.336                   : en:Chapter 08
01:34:23.836                   : en:Chapter 09
01:42:53.503                   : en:Chapter 10
01:46:01.170                   : en:Chapter 11


